# xmcd CD database file
#
# Track frame offsets:
#	150
#	13915
#	27326
#	42238
#	53763
#	67319
#	79667
#	92200
#	103864
#	117206
#	129417
#	144561
#	158716
#	173187
#	186766
#	200605
#	212723
#	223942
#
# Disc length: 3175 seconds
#
# Revision: 0
# Processed by: cddbd v1.5.1PL2 Copyright (c) Steve Scherf et al.
# Submitted via: CDex 1.51
#
DISCID=0e0c6512
DTITLE=Ella Fitzgerald - Sing, Song, Swing [CD1]
DYEAR=1900
DGENRE=Jazz
TTITLE0=Sing, Song, Swing
TTITLE1=Imagination
TTITLE2=Stairway To The Stars
TTITLE3=Baby Won't You Please Come Home?
TTITLE4=Moon Ray
TTITLE5=Mama, Come Home
TTITLE6=Can't Help Lovin' Dat Man
TTITLE7=I'll Chase The Blues Away
TTITLE8=Once Too Often
TTITLE9=I'm Beginning To See The Light
TTITLE10=He's My Guy
TTITLE11=Time Alone Will Tell
TTITLE12=Somebody Nobody Loves
TTITLE13=My Man
TTITLE14=Jim
TTITLE15=Stone Cold Dead In The Market
TTITLE16=Flying Home
TTITLE17=A Kiss Goodnight
EXTD=
EXTT0=
EXTT1=
EXTT2=
EXTT3=
EXTT4=
EXTT5=
EXTT6=
EXTT7=
EXTT8=
EXTT9=
EXTT10=
EXTT11=
EXTT12=
EXTT13=
EXTT14=
EXTT15=
EXTT16=
EXTT17=
PLAYORDER=
